<?xml version="1.0" encoding="utf-8"?>
<!-- created with bpmn-js / http://bpmn.io -->
<!DOCTYPE svg PUBLIC "-//W3C//DTD SVG 1.1//EN" "http://www.w3.org/Graphics/SVG/1.1/DTD/svg11.dtd">
<svg xmlns="http://www.w3.org/2000/svg" xmlns:xlink="http://www.w3.org/1999/xlink" width="1054" height="721" viewBox="150 55 1054 721" version="1.1"><defs><marker id="sequenceflow-end-white-black-8wvrjtqivw8t8wnlhzbvwlokn" viewBox="0 0 20 20" refX="11" refY="10" markerWidth="10" markerHeight="10" orient="auto"><path d="M 1 5 L 11 10 L 1 15 Z" style="fill: black; stroke-width: 1px; stroke-linecap: round; stroke-dasharray: 10000, 1; stroke: black;"/></marker></defs><g class="djs-group"><g class="djs-element djs-shape" data-element-id="Participant_0wj7apa" style="display: block;" transform="matrix(1 0 0 1 156 61)"><g class="djs-visual"><rect x="0" y="0" width="1042" height="709" rx="0" ry="0" style="stroke: black; stroke-width: 2px; fill: white; fill-opacity: 0.95;"/><polyline points="30,0 30,709 " style="fill: none; stroke: black; stroke-width: 2px;"/><text lineHeight="1.2" class="djs-label" style="font-family: Arial, sans-serif; font-size: 12px; font-weight: normal; fill: black;" transform="matrix(-1.83697e-16 -1 1 -1.83697e-16 0 709)"><tspan x="287.125" y="18.6">Fabricación de productos</tspan></text></g><rect x="-6" y="-6" width="1054" height="721" class="djs-outline" style="fill: none;"/><rect class="djs-hit djs-hit-click-stroke" x="0" y="0" width="1042" height="709" style="fill: none; stroke-opacity: 0; stroke: white; stroke-width: 15px;"/><rect class="djs-hit djs-hit-all" x="0" y="0" width="30" height="709" style="fill: none; stroke-opacity: 0; stroke: white; stroke-width: 15px;"/></g><g class="djs-children"><g class="djs-group"><g class="djs-element djs-shape" data-element-id="Lane_1x8s12l" style="display: block;" transform="matrix(1 0 0 1 186 257)"><g class="djs-visual"><rect x="0" y="0" width="1012" height="196" rx="0" ry="0" style="stroke: black; stroke-width: 2px; fill: white; fill-opacity: 0.35;"/><text lineHeight="1.2" class="djs-label" style="font-family: Arial, sans-serif; font-size: 12px; font-weight: normal; fill: black;" transform="matrix(-1.83697e-16 -1 1 -1.83697e-16 0 196)"><tspan x="68.4765625" y="18.6">Bodeguero</tspan></text></g><rect x="-6" y="-6" width="1024" height="208" class="djs-outline" style="fill: none;"/><rect class="djs-hit djs-hit-click-stroke" x="0" y="0" width="1012" height="196" style="fill: none; stroke-opacity: 0; stroke: white; stroke-width: 15px;"/><rect class="djs-hit djs-hit-all" x="0" y="0" width="30" height="196" style="fill: none; stroke-opacity: 0; stroke: white; stroke-width: 15px;"/></g></g><g class="djs-group"><g class="djs-element djs-shape" data-element-id="Lane_0hhkf21" style="display: block;" transform="matrix(1 0 0 1 186 61)"><g class="djs-visual"><rect x="0" y="0" width="1012" height="196" rx="0" ry="0" style="stroke: black; stroke-width: 2px; fill: white; fill-opacity: 0.35;"/><text lineHeight="1.2" class="djs-label" style="font-family: Arial, sans-serif; font-size: 12px; font-weight: normal; fill: black;" transform="matrix(-1.83697e-16 -1 1 -1.83697e-16 0 196)"><tspan x="60.65625" y="18.6">Administrativo</tspan></text></g><rect x="-6" y="-6" width="1024" height="208" class="djs-outline" style="fill: none;"/><rect class="djs-hit djs-hit-click-stroke" x="0" y="0" width="1012" height="196" style="fill: none; stroke-opacity: 0; stroke: white; stroke-width: 15px;"/><rect class="djs-hit djs-hit-all" x="0" y="0" width="30" height="196" style="fill: none; stroke-opacity: 0; stroke: white; stroke-width: 15px;"/></g></g><g class="djs-group"><g class="djs-element djs-shape" data-element-id="Lane_0mq7x4q" style="display: block;" transform="matrix(1 0 0 1 186 573)"><g class="djs-visual"><rect x="0" y="0" width="1012" height="197" rx="0" ry="0" style="stroke: black; stroke-width: 2px; fill: white; fill-opacity: 0.35;"/><text lineHeight="1.2" class="djs-label" style="font-family: Arial, sans-serif; font-size: 12px; font-weight: normal; fill: black;" transform="matrix(-1.83697e-16 -1 1 -1.83697e-16 0 197)"><tspan x="98.5" y="18.6"/></text></g><rect x="-6" y="-6" width="1024" height="209" class="djs-outline" style="fill: none;"/><rect class="djs-hit djs-hit-click-stroke" x="0" y="0" width="1012" height="197" style="fill: none; stroke-opacity: 0; stroke: white; stroke-width: 15px;"/><rect class="djs-hit djs-hit-all" x="0" y="0" width="30" height="197" style="fill: none; stroke-opacity: 0; stroke: white; stroke-width: 15px;"/></g></g><g class="djs-group"><g class="djs-element djs-shape" data-element-id="Lane_1u8tudz" style="display: block;" transform="matrix(1 0 0 1 186 453)"><g class="djs-visual"><rect x="0" y="0" width="1012" height="120" rx="0" ry="0" style="stroke: black; stroke-width: 2px; fill: white; fill-opacity: 0.35;"/><text lineHeight="1.2" class="djs-label" style="font-family: Arial, sans-serif; font-size: 12px; font-weight: normal; fill: black;" transform="matrix(-1.83697e-16 -1 1 -1.83697e-16 0 120)"><tspan x="27.6484375" y="18.6">Productores</tspan></text></g><rect x="-6" y="-6" width="1024" height="132" class="djs-outline" style="fill: none;"/><rect class="djs-hit djs-hit-click-stroke" x="0" y="0" width="1012" height="120" style="fill: none; stroke-opacity: 0; stroke: white; stroke-width: 15px;"/><rect class="djs-hit djs-hit-all" x="0" y="0" width="30" height="120" style="fill: none; stroke-opacity: 0; stroke: white; stroke-width: 15px;"/></g></g><g class="djs-group"><g class="djs-element djs-connection" data-element-id="SequenceFlow_1v65ms0" style="display: block;"><g class="djs-visual"><path d="m  470,190L580,190 " style="fill: none; stroke-width: 2px; stroke: black; stroke-linejoin: round; marker-end: url('#sequenceflow-end-white-black-8wvrjtqivw8t8wnlhzbvwlokn');"/></g><polyline points="470,190 580,190 " class="djs-hit djs-hit-stroke" style="fill: none; stroke-opacity: 0; stroke: white; stroke-width: 15px;"/><rect x="464" y="184" width="122" height="12" class="djs-outline" style="fill: none;"/></g></g><g class="djs-group"><g class="djs-element djs-connection" data-element-id="SequenceFlow_0uxsju3" style="display: block;"><g class="djs-visual"><path d="m  630,220L630,280 L300,280 L300,320 " style="fill: none; stroke-width: 2px; stroke: black; stroke-linejoin: round; marker-end: url('#sequenceflow-end-white-black-8wvrjtqivw8t8wnlhzbvwlokn');"/></g><polyline points="630,220 630,280 300,280 300,320 " class="djs-hit djs-hit-stroke" style="fill: none; stroke-opacity: 0; stroke: white; stroke-width: 15px;"/><rect x="294" y="214" width="342" height="112" class="djs-outline" style="fill: none;"/></g></g><g class="djs-group"><g class="djs-element djs-connection" data-element-id="SequenceFlow_0lyzdwt" style="display: block;"><g class="djs-visual"><path d="m  1000,170L1062,170 " style="fill: none; stroke-width: 2px; stroke: black; stroke-linejoin: round; marker-end: url('#sequenceflow-end-white-black-8wvrjtqivw8t8wnlhzbvwlokn');"/></g><polyline points="1000,170 1062,170 " class="djs-hit djs-hit-stroke" style="fill: none; stroke-opacity: 0; stroke: white; stroke-width: 15px;"/><rect x="994" y="164" width="74" height="12" class="djs-outline" style="fill: none;"/></g></g><g class="djs-group"><g class="djs-element djs-connection" data-element-id="SequenceFlow_1i07n0a" style="display: block;"><g class="djs-visual"><path d="m  500,510L630,510 " style="fill: none; stroke-width: 2px; stroke: black; stroke-linejoin: round; marker-end: url('#sequenceflow-end-white-black-8wvrjtqivw8t8wnlhzbvwlokn');"/></g><polyline points="500,510 630,510 " class="djs-hit djs-hit-stroke" style="fill: none; stroke-opacity: 0; stroke: white; stroke-width: 15px;"/><rect x="494" y="504" width="142" height="12" class="djs-outline" style="fill: none;"/></g></g><g class="djs-group"><g class="djs-element djs-connection" data-element-id="SequenceFlow_1o5lcdy" style="display: block;"><g class="djs-visual"><path d="m  680,550L680,640 " style="fill: none; stroke-width: 2px; stroke: black; stroke-linejoin: round; marker-end: url('#sequenceflow-end-white-black-8wvrjtqivw8t8wnlhzbvwlokn');"/></g><polyline points="680,550 680,640 " class="djs-hit djs-hit-stroke" style="fill: none; stroke-opacity: 0; stroke: white; stroke-width: 15px;"/><rect x="674" y="544" width="12" height="102" class="djs-outline" style="fill: none;"/></g></g><g class="djs-group"><g class="djs-element djs-connection" data-element-id="SequenceFlow_1mbtjom" style="display: block;"><g class="djs-visual"><path d="m  450,400L450,470 " style="fill: none; stroke-width: 2px; stroke: black; stroke-linejoin: round; marker-end: url('#sequenceflow-end-white-black-8wvrjtqivw8t8wnlhzbvwlokn');"/></g><polyline points="450,400 450,470 " class="djs-hit djs-hit-stroke" style="fill: none; stroke-opacity: 0; stroke: white; stroke-width: 15px;"/><rect x="444" y="394" width="12" height="82" class="djs-outline" style="fill: none;"/></g></g><g class="djs-group"><g class="djs-element djs-connection" data-element-id="SequenceFlow_16h2igh" style="display: block;"><g class="djs-visual"><path d="m  350,360L400,360 " style="fill: none; stroke-width: 2px; stroke: black; stroke-linejoin: round; marker-end: url('#sequenceflow-end-white-black-8wvrjtqivw8t8wnlhzbvwlokn');"/></g><polyline points="350,360 400,360 " class="djs-hit djs-hit-stroke" style="fill: none; stroke-opacity: 0; stroke: white; stroke-width: 15px;"/><rect x="344" y="354" width="62" height="12" class="djs-outline" style="fill: none;"/></g></g><g class="djs-group"><g class="djs-element djs-connection" data-element-id="SequenceFlow_1wu6no3" style="display: block;"><g class="djs-visual"><path d="m  300,400L300,640 " style="fill: none; stroke-width: 2px; stroke: black; stroke-linejoin: round; marker-end: url('#sequenceflow-end-white-black-8wvrjtqivw8t8wnlhzbvwlokn');"/></g><polyline points="300,400 300,640 " class="djs-hit djs-hit-stroke" style="fill: none; stroke-opacity: 0; stroke: white; stroke-width: 15px;"/><rect x="294" y="394" width="12" height="252" class="djs-outline" style="fill: none;"/></g></g><g class="djs-group"><g class="djs-element djs-connection" data-element-id="SequenceFlow_0umz99g" style="display: block;"><g class="djs-visual"><path d="m  288,110L630,110 L630,140 " style="fill: none; stroke-width: 2px; stroke: black; stroke-linejoin: round; marker-end: url('#sequenceflow-end-white-black-8wvrjtqivw8t8wnlhzbvwlokn');"/></g><polyline points="288,110 630,110 630,140 " class="djs-hit djs-hit-stroke" style="fill: none; stroke-opacity: 0; stroke: white; stroke-width: 15px;"/><rect x="282" y="104" width="354" height="42" class="djs-outline" style="fill: none;"/></g></g><g class="djs-group"><g class="djs-element djs-connection" data-element-id="SequenceFlow_18q0u82" style="display: block;"><g class="djs-visual"><path d="m  320,190L370,190 " style="fill: none; stroke-width: 2px; stroke: black; stroke-linejoin: round; marker-end: url('#sequenceflow-end-white-black-8wvrjtqivw8t8wnlhzbvwlokn');"/></g><polyline points="320,190 370,190 " class="djs-hit djs-hit-stroke" style="fill: none; stroke-opacity: 0; stroke: white; stroke-width: 15px;"/><rect x="314" y="184" width="62" height="12" class="djs-outline" style="fill: none;"/></g></g><g class="djs-group"><g class="djs-element djs-connection" data-element-id="SequenceFlow_0axr735" style="display: block;"><g class="djs-visual"><path d="m  270,128L270,150 " style="fill: none; stroke-width: 2px; stroke: black; stroke-linejoin: round; marker-end: url('#sequenceflow-end-white-black-8wvrjtqivw8t8wnlhzbvwlokn');"/></g><polyline points="270,128 270,150 " class="djs-hit djs-hit-stroke" style="fill: none; stroke-opacity: 0; stroke: white; stroke-width: 15px;"/><rect x="264" y="122" width="12" height="34" class="djs-outline" style="fill: none;"/></g></g><g class="djs-group"><g class="djs-element djs-connection" data-element-id="SequenceFlow_1l1si6b" style="display: block;"><g class="djs-visual"><path d="m  680,470L680,360 L720,360 " style="fill: none; stroke-width: 2px; stroke: black; stroke-linejoin: round; marker-end: url('#sequenceflow-end-white-black-8wvrjtqivw8t8wnlhzbvwlokn');"/></g><polyline points="680,470 680,360 720,360 " class="djs-hit djs-hit-stroke" style="fill: none; stroke-opacity: 0; stroke: white; stroke-width: 15px;"/><rect x="674" y="354" width="52" height="122" class="djs-outline" style="fill: none;"/></g></g><g class="djs-group"><g class="djs-element djs-connection" data-element-id="SequenceFlow_1mqawcp" style="display: block;"><g class="djs-visual"><path d="m  820,360L900,360 " style="fill: none; stroke-width: 2px; stroke: black; stroke-linejoin: round; marker-end: url('#sequenceflow-end-white-black-8wvrjtqivw8t8wnlhzbvwlokn');"/></g><polyline points="820,360 900,360 " class="djs-hit djs-hit-stroke" style="fill: none; stroke-opacity: 0; stroke: white; stroke-width: 15px;"/><rect x="814" y="354" width="92" height="12" class="djs-outline" style="fill: none;"/></g></g><g class="djs-group"><g class="djs-element djs-connection" data-element-id="SequenceFlow_1pqdocy" style="display: block;"><g class="djs-visual"><path d="m  950,320L950,210 " style="fill: none; stroke-width: 2px; stroke: black; stroke-linejoin: round; marker-end: url('#sequenceflow-end-white-black-8wvrjtqivw8t8wnlhzbvwlokn');"/></g><polyline points="950,320 950,210 " class="djs-hit djs-hit-stroke" style="fill: none; stroke-opacity: 0; stroke: white; stroke-width: 15px;"/><rect x="944" y="204" width="12" height="122" class="djs-outline" style="fill: none;"/></g></g><g class="djs-group"><g class="djs-element djs-shape" data-element-id="StartEvent_0qo61vb" style="display: block;" transform="matrix(1 0 0 1 252 92)"><g class="djs-visual"><circle cx="18" cy="18" r="18" style="stroke: black; stroke-width: 2px; fill: white; fill-opacity: 0.95;"/></g><rect class="djs-hit djs-hit-all" x="0" y="0" width="36" height="36" style="fill: none; stroke-opacity: 0; stroke: white; stroke-width: 15px;"/><rect x="-6" y="-6" width="48" height="48" class="djs-outline" style="fill: none;"/></g></g><g class="djs-group"><g class="djs-element djs-shape" data-element-id="Task_1k0fn2z" style="display: block;" transform="matrix(1 0 0 1 220 150)"><g class="djs-visual"><rect x="0" y="0" width="100" height="80" rx="10" ry="10" style="stroke: black; stroke-width: 2px; fill: white; fill-opacity: 0.95;"/><text lineHeight="1.2" class="djs-label" style="font-family: Arial, sans-serif; font-size: 12px; font-weight: normal; fill: black;"><tspan x="21.484375" y="36.4">Recepción </tspan><tspan x="6.4609375" y="50.8">orden de pedido</tspan></text></g><rect class="djs-hit djs-hit-all" x="0" y="0" width="100" height="80" style="fill: none; stroke-opacity: 0; stroke: white; stroke-width: 15px;"/><rect x="-6" y="-6" width="112" height="92" class="djs-outline" style="fill: none;"/></g></g><g class="djs-group"><g class="djs-element djs-shape" data-element-id="Task_03uwkyv" style="display: block;" transform="matrix(1 0 0 1 370 150)"><g class="djs-visual"><rect x="0" y="0" width="100" height="80" rx="10" ry="10" style="stroke: black; stroke-width: 2px; fill: white; fill-opacity: 0.95;"/><text lineHeight="1.2" class="djs-label" style="font-family: Arial, sans-serif; font-size: 12px; font-weight: normal; fill: black;"><tspan x="14.25" y="36.4">Validación de </tspan><tspan x="31.8125" y="50.8">pedido</tspan></text></g><rect class="djs-hit djs-hit-all" x="0" y="0" width="100" height="80" style="fill: none; stroke-opacity: 0; stroke: white; stroke-width: 15px;"/><rect x="-6" y="-6" width="112" height="92" class="djs-outline" style="fill: none;"/></g></g><g class="djs-group"><g class="djs-element djs-shape" data-element-id="Task_05fhjik" style="display: block;" transform="matrix(1 0 0 1 250 320)"><g class="djs-visual"><rect x="0" y="0" width="100" height="80" rx="10" ry="10" style="stroke: black; stroke-width: 2px; fill: white; fill-opacity: 0.95;"/><text lineHeight="1.2" class="djs-label" style="font-family: Arial, sans-serif; font-size: 12px; font-weight: normal; fill: black;"><tspan x="12.1484375" y="29.200000000000003">Estimación de </tspan><tspan x="22.484375" y="43.6">insumos a </tspan><tspan x="25.15625" y="58">consumir</tspan></text></g><rect class="djs-hit djs-hit-all" x="0" y="0" width="100" height="80" style="fill: none; stroke-opacity: 0; stroke: white; stroke-width: 15px;"/><rect x="-6" y="-6" width="112" height="92" class="djs-outline" style="fill: none;"/></g></g><g class="djs-group"><g class="djs-element djs-shape" data-element-id="Task_1hmkqpk" style="display: block;" transform="matrix(1 0 0 1 400 320)"><g class="djs-visual"><rect x="0" y="0" width="100" height="80" rx="10" ry="10" style="stroke: black; stroke-width: 2px; fill: white; fill-opacity: 0.95;"/><text lineHeight="1.2" class="djs-label" style="font-family: Arial, sans-serif; font-size: 12px; font-weight: normal; fill: black;"><tspan x="15.8125" y="36.4">Retiro desde </tspan><tspan x="27.15625" y="50.8">almacén</tspan></text></g><rect class="djs-hit djs-hit-all" x="0" y="0" width="100" height="80" style="fill: none; stroke-opacity: 0; stroke: white; stroke-width: 15px;"/><rect x="-6" y="-6" width="112" height="92" class="djs-outline" style="fill: none;"/></g></g><g class="djs-group"><g class="djs-element djs-shape" data-element-id="Task_1lpe70p" style="display: block;" transform="matrix(1 0 0 1 720 320)"><g class="djs-visual"><rect x="0" y="0" width="100" height="80" rx="10" ry="10" style="stroke: black; stroke-width: 2px; fill: white; fill-opacity: 0.95;"/><text lineHeight="1.2" class="djs-label" style="font-family: Arial, sans-serif; font-size: 12px; font-weight: normal; fill: black;"><tspan x="21.4765625" y="29.200000000000003">Ingreso de </tspan><tspan x="12.140625" y="43.6">productos a la </tspan><tspan x="29.8125" y="58">bodega</tspan></text></g><rect class="djs-hit djs-hit-all" x="0" y="0" width="100" height="80" style="fill: none; stroke-opacity: 0; stroke: white; stroke-width: 15px;"/><rect x="-6" y="-6" width="112" height="92" class="djs-outline" style="fill: none;"/></g></g><g class="djs-group"><g class="djs-element djs-shape" data-element-id="Task_0a2xnag" style="display: block;" transform="matrix(1 0 0 1 580 140)"><g class="djs-visual"><rect x="0" y="0" width="100" height="80" rx="10" ry="10" style="stroke: black; stroke-width: 2px; fill: white; fill-opacity: 0.95;"/><text lineHeight="1.2" class="djs-label" style="font-family: Arial, sans-serif; font-size: 12px; font-weight: normal; fill: black;"><tspan x="7.8046875" y="29.200000000000003">Planificación de</tspan><tspan x="20.484375" y="43.6">producción </tspan><tspan x="27.1484375" y="58">mensual</tspan></text></g><rect class="djs-hit djs-hit-all" x="0" y="0" width="100" height="80" style="fill: none; stroke-opacity: 0; stroke: white; stroke-width: 15px;"/><rect x="-6" y="-6" width="112" height="92" class="djs-outline" style="fill: none;"/></g></g><g class="djs-group"><g class="djs-element djs-shape" data-element-id="DataStoreReference_14sc5q1" style="display: block;" transform="matrix(1 0 0 1 195 655)"><g class="djs-visual"><path d="m  0,6.65 l  0,36.885245901639344 c  1.639344262295082,8.196721311475411 47.540983606557376,8.196721311475411  49.18032786885246,0 l  0,-36.885245901639344 c -1.639344262295082,-8.196721311475411 -47.540983606557376,-8.196721311475411 -49.18032786885246,0c  1.639344262295082,8.196721311475411 47.540983606557376,8.196721311475411  49.18032786885246,0 m  -49.18032786885246,5.737704918032787c  1.639344262295082,8.196721311475411 47.540983606557376,8.196721311475411 49.18032786885246,0m  -49.18032786885246,5.737704918032787c  1.639344262295082,8.196721311475411 47.540983606557376,8.196721311475411  49.18032786885246,0" style="fill: white; stroke-width: 2px; stroke: black; fill-opacity: 0.95;"/></g><rect class="djs-hit djs-hit-all" x="0" y="0" width="50" height="50" style="fill: none; stroke-opacity: 0; stroke: white; stroke-width: 15px;"/><rect x="-6" y="-6" width="62" height="62" class="djs-outline" style="fill: none;"/></g></g><g class="djs-group"><g class="djs-element djs-shape" data-element-id="Task_0q0wuqw" style="display: block;" transform="matrix(1 0 0 1 250 640)"><g class="djs-visual"><rect x="0" y="0" width="100" height="80" rx="10" ry="10" style="stroke: black; stroke-width: 2px; fill: white; fill-opacity: 0.95;"/><text lineHeight="1.2" class="djs-label" style="font-family: Arial, sans-serif; font-size: 12px; font-weight: normal; fill: black;"><tspan x="19.1484375" y="22">Registro de </tspan><tspan x="14.8046875" y="36.4">orden/pedido </tspan><tspan x="11.1484375" y="50.8">con insumos a </tspan><tspan x="33.828125" y="65.19999999999999">retirar</tspan></text></g><rect class="djs-hit djs-hit-all" x="0" y="0" width="100" height="80" style="fill: none; stroke-opacity: 0; stroke: white; stroke-width: 15px;"/><rect x="-6" y="-6" width="112" height="92" class="djs-outline" style="fill: none;"/></g></g><g class="djs-group"><g class="djs-element djs-shape" data-element-id="Task_1q2xtbd" style="display: block;" transform="matrix(1 0 0 1 400 470)"><g class="djs-visual"><rect x="0" y="0" width="100" height="80" rx="10" ry="10" style="stroke: black; stroke-width: 2px; fill: white; fill-opacity: 0.95;"/><text lineHeight="1.2" class="djs-label" style="font-family: Arial, sans-serif; font-size: 12px; font-weight: normal; fill: black;"><tspan x="18.1484375" y="43.599999999999994">Elaboración</tspan></text></g><rect class="djs-hit djs-hit-all" x="0" y="0" width="100" height="80" style="fill: none; stroke-opacity: 0; stroke: white; stroke-width: 15px;"/><rect x="-6" y="-6" width="112" height="92" class="djs-outline" style="fill: none;"/></g></g><g class="djs-group"><g class="djs-element djs-shape" data-element-id="Task_1ol440w" style="display: block;" transform="matrix(1 0 0 1 900 130)"><g class="djs-visual"><rect x="0" y="0" width="100" height="80" rx="10" ry="10" style="stroke: black; stroke-width: 2px; fill: white; fill-opacity: 0.95;"/><text lineHeight="1.2" class="djs-label" style="font-family: Arial, sans-serif; font-size: 12px; font-weight: normal; fill: black;"><tspan x="14.25" y="36.4">Validación de </tspan><tspan x="26.9921875" y="50.8">registros</tspan></text></g><rect class="djs-hit djs-hit-all" x="0" y="0" width="100" height="80" style="fill: none; stroke-opacity: 0; stroke: white; stroke-width: 15px;"/><rect x="-6" y="-6" width="112" height="92" class="djs-outline" style="fill: none;"/></g></g><g class="djs-group"><g class="djs-element djs-shape" data-element-id="EndEvent_0vq4bu5" style="display: block;" transform="matrix(1 0 0 1 1062 152)"><g class="djs-visual"><circle cx="18" cy="18" r="18" style="stroke: black; stroke-width: 4px; fill: white; fill-opacity: 0.95;"/></g><rect class="djs-hit djs-hit-all" x="0" y="0" width="36" height="36" style="fill: none; stroke-opacity: 0; stroke: white; stroke-width: 15px;"/><rect x="-6" y="-6" width="48" height="48" class="djs-outline" style="fill: none;"/></g></g><g class="djs-group"><g class="djs-element djs-shape" data-element-id="Task_1h192ae" style="display: block;" transform="matrix(1 0 0 1 630 470)"><g class="djs-visual"><rect x="0" y="0" width="100" height="80" rx="10" ry="10" style="stroke: black; stroke-width: 2px; fill: white; fill-opacity: 0.95;"/><text lineHeight="1.2" class="djs-label" style="font-family: Arial, sans-serif; font-size: 12px; font-weight: normal; fill: black;"><tspan x="25.3203125" y="36.4">Envase y </tspan><tspan x="21.8046875" y="50.8">etiquetado</tspan></text></g><rect class="djs-hit djs-hit-all" x="0" y="0" width="100" height="80" style="fill: none; stroke-opacity: 0; stroke: white; stroke-width: 15px;"/><rect x="-6" y="-6" width="112" height="92" class="djs-outline" style="fill: none;"/></g></g><g class="djs-group"><g class="djs-element djs-shape" data-element-id="Task_08odaji" style="display: block;" transform="matrix(1 0 0 1 630 640)"><g class="djs-visual"><rect x="0" y="0" width="100" height="80" rx="10" ry="10" style="stroke: black; stroke-width: 2px; fill: white; fill-opacity: 0.95;"/><text lineHeight="1.2" class="djs-label" style="font-family: Arial, sans-serif; font-size: 12px; font-weight: normal; fill: black;"><tspan x="19.1484375" y="29.200000000000003">Registro de </tspan><tspan x="6.140625" y="43.6">nuevos items en </tspan><tspan x="23.8203125" y="58">inventario</tspan></text></g><rect class="djs-hit djs-hit-all" x="0" y="0" width="100" height="80" style="fill: none; stroke-opacity: 0; stroke: white; stroke-width: 15px;"/><rect x="-6" y="-6" width="112" height="92" class="djs-outline" style="fill: none;"/></g></g><g class="djs-group"><g class="djs-element djs-shape" data-element-id="Task_08glo5y" style="display: block;" transform="matrix(1 0 0 1 900 320)"><g class="djs-visual"><rect x="0" y="0" width="100" height="80" rx="10" ry="10" style="stroke: black; stroke-width: 2px; fill: white; fill-opacity: 0.95;"/><text lineHeight="1.2" class="djs-label" style="font-family: Arial, sans-serif; font-size: 12px; font-weight: normal; fill: black;"><tspan x="14.25" y="36.4">Validación de </tspan><tspan x="23.6484375" y="50.8">productos</tspan></text></g><rect class="djs-hit djs-hit-all" x="0" y="0" width="100" height="80" style="fill: none; stroke-opacity: 0; stroke: white; stroke-width: 15px;"/><rect x="-6" y="-6" width="112" height="92" class="djs-outline" style="fill: none;"/></g></g></g></g><g class="djs-group"><g class="djs-element djs-shape" data-element-id="SequenceFlow_0umz99g_label" style="display: block;" transform="matrix(1 0 0 1 409 76)"><g class="djs-visual"><text lineHeight="1.2" class="djs-label" style="font-family: Arial, sans-serif; font-size: 11px; font-weight: normal; fill: black;"><tspan x="0" y="9.899999999999999">Producción base</tspan></text></g><rect class="djs-hit djs-hit-all" x="0" y="0" width="82" height="14" style="fill: none; stroke-opacity: 0; stroke: white; stroke-width: 15px;"/><rect x="-6" y="-6" width="94" height="26" class="djs-outline" style="fill: none;"/></g></g></svg>